<svg xmlns="http://www.w3.org/2000/svg" xmlns:xlink="http://www.w3.org/1999/xlink" width="412" height="137" viewBox="0 0 412 137">
  <defs>
    <clipPath id="clip-path">
      <rect id="Rectangle_567" data-name="Rectangle 567" width="412" height="137" transform="translate(-1)" fill="#fff"/>
    </clipPath>
  </defs>
  <g id="Groupe_de_masques_3" data-name="Groupe de masques 3" transform="translate(1)" clip-path="url(#clip-path)">
    <g id="Groupe_8636" data-name="Groupe 8636" transform="translate(20 20)">
      <g id="Groupe_8566" data-name="Groupe 8566" transform="translate(-20.625 -46.298)">
        <path id="Tracé_34781" data-name="Tracé 34781" d="M1042.85-110.838S1105.183-38.02,1172.8-38.02s103.539-27.414,157.419-27.414,79.24,43.691,125.726,43.691V-183.767h-413.1Z" transform="translate(-1042.85 183.767)" fill="#c8dcc8" opacity="0.121"/>
        <path id="Tracé_34782" data-name="Tracé 34782" d="M1464.59-125.707s-63.639,89.8-132.671,89.8-105.7-33.808-160.714-33.808-80.9,53.882-128.355,53.882V-161.838h421.74Z" transform="translate(-1042.225 167.02)" fill="#c8dcc8" opacity="0.171"/>
        <path id="Tracé_34783" data-name="Tracé 34783" d="M1042.85-156.148s62.333,70.3,129.95,70.3,103.539-26.465,157.419-26.465,79.24,42.178,125.726,42.178V-184.431h-413.1Z" transform="translate(-1042.85 210.733)" fill="#78938a"/>
      </g>
    </g>
    <g id="Groupe_8607" data-name="Groupe 8607" transform="translate(1139.403 -674.615)" opacity="0.086">
      <path id="Tracé_29270" data-name="Tracé 29270" d="M-1072.607,774.952a2.044,2.044,0,0,1-1.088-2.091c.061-1.321.016-2.647.016-4.05h-15.477c-.2,0-.41.007-.614,0a1.545,1.545,0,0,1-1.564-1.553,1.541,1.541,0,0,1,1.529-1.509c.229-.014.461,0,.691,0h25.52v-16.89h-66.239v16.89h25.517c.23,0,.461-.009.691,0a1.544,1.544,0,0,1,1.531,1.508,1.545,1.545,0,0,1-1.563,1.553c-.281.015-.563,0-.844,0h-15.247v2.362c0,.563-.042,1.129.009,1.688a1.984,1.984,0,0,1-1.081,2.092h-7.063a2.009,2.009,0,0,1-1.093-2.08c.061-1.339.015-2.683.015-4.061-.749,0-1.385,0-2.021,0-1.454,0-1.967-.523-1.968-2q0-8.543,0-17.086v-.934c-1.2-.008-2.388.2-3.071-1.015v-7.062a1.848,1.848,0,0,1,1.961-1.151c1.406.035,2.814.009,4.221.009h.879c0-1.424,0-2.752,0-4.079a7.259,7.259,0,0,1,7.541-7.539q5.68-.014,11.361,0a7.265,7.265,0,0,1,7.506,7.5c.007,1.328,0,2.657,0,4.05h11.678c0-1.478-.047-2.952.01-4.423a7,7,0,0,1,3.877-6.266,17.717,17.717,0,0,1,2.784-.972,22.715,22.715,0,0,1-1.179-3.633,10.819,10.819,0,0,1,.355-5.455,7.857,7.857,0,0,1,8.75-5.041,7.9,7.9,0,0,1,6.438,7.55c.067,2.331-.019,4.613-1.6,6.616.588.115,1.083.181,1.561.309a7.27,7.27,0,0,1,5.4,6.927c.023,1.453,0,2.907,0,4.452h4.193c.409,0,.819-.013,1.228.006a1.527,1.527,0,0,1,1.639,1.706c.012,1.893.009,3.786,0,5.679a1.585,1.585,0,0,1-1.771,1.817c-.4.012-.81,0-1.3,0v.971q0,8.519,0,17.037c0,1.514-.507,2.015-2.03,2.018h-1.959v2.906c0,.486-.028.974.005,1.458a1.834,1.834,0,0,1-1.083,1.778Zm-60.32-29.3h72.4v-2.949h-72.4Zm7.048-6.144h20.245c0-1.57.058-3.08-.014-4.584a4.108,4.108,0,0,0-4.013-3.887q-6.1-.051-12.2,0a4.1,4.1,0,0,0-4,3.815C-1125.942,736.385-1125.879,737.921-1125.879,739.512Zm58.338.018c0-1.5.025-2.95-.006-4.4a4.148,4.148,0,0,0-4.132-4.093q-5.987-.037-11.974,0a4.085,4.085,0,0,0-4.1,3.7c-.126,1.572-.025,3.162-.025,4.791h3.046c0-1.066,0-2.085,0-3.1.005-1.2.571-1.87,1.553-1.861s1.512.672,1.516,1.894c0,1.014,0,2.029,0,3.058h7.986c0-1.159-.019-2.257,0-3.355a1.513,1.513,0,0,1,1.733-1.589,1.5,1.5,0,0,1,1.326,1.611c.017,1.112,0,2.224,0,3.348Zm-14.888-17.324c0,.4-.008.736,0,1.068a4.787,4.787,0,0,0,4.426,4.66,4.686,4.686,0,0,0,4.954-3.779,13.691,13.691,0,0,0,.122-2.9,4.727,4.727,0,0,0-6.854-4.074A4.808,4.808,0,0,0-1082.429,722.206Zm-43.415,46.62v3h2.963v-3Zm55.3,0v3h2.948v-3Z" transform="translate(0 -30.199)" fill="#fff"/>
      <path id="Tracé_29271" data-name="Tracé 29271" d="M-1055.662,684.928a3.2,3.2,0,0,1,2-3.232,1.542,1.542,0,0,0,1.045-1.541,1.435,1.435,0,0,0-.986-1.342,1.564,1.564,0,0,0-1.742.454,1.549,1.549,0,0,1-2.3.122,1.524,1.524,0,0,1,.12-2.256,4.393,4.393,0,0,1,4.834-1.254,4.344,4.344,0,0,1,3.136,4.049,4.366,4.366,0,0,1-2.364,4.323c-.391.224-.707.366-.692.936a1.57,1.57,0,0,1-1.54,1.81c-.916-.01-1.5-.723-1.511-1.839C-1055.663,685.081-1055.662,685-1055.662,684.928Z" transform="translate(-61.952 0)" fill="#fff"/>
      <path id="Tracé_29272" data-name="Tracé 29272" d="M-1044.663,746.177a1.533,1.533,0,0,1,1.493,1.538,1.579,1.579,0,0,1-1.539,1.514,1.544,1.544,0,0,1-1.514-1.6A1.493,1.493,0,0,1-1044.663,746.177Z" transform="translate(-71.384 -56.091)" fill="#fff"/>
      <path id="Tracé_29273" data-name="Tracé 29273" d="M-950.277,967.863a1.548,1.548,0,0,1,1.532,1.489,1.547,1.547,0,0,1-1.527,1.571,1.547,1.547,0,0,1-1.532-1.566A1.545,1.545,0,0,1-950.277,967.863Z" transform="translate(-146.44 -232.315)" fill="#fff"/>
    </g>
  </g>
</svg>
