<svg xmlns="http://www.w3.org/2000/svg" xmlns:xlink="http://www.w3.org/1999/xlink" width="412" height="137" viewBox="0 0 412 137">
  <defs>
    <clipPath id="clip-path">
      <rect id="Rectangle_567" data-name="Rectangle 567" width="412" height="137" transform="translate(-1)" fill="#fff"/>
    </clipPath>
  </defs>
  <g id="Groupe_de_masques_3" data-name="Groupe de masques 3" transform="translate(1)" clip-path="url(#clip-path)">
    <g id="Groupe_8636" data-name="Groupe 8636" transform="translate(20 20)">
      <g id="Groupe_8566" data-name="Groupe 8566" transform="translate(-20.625 -46.298)">
        <path id="Tracé_34781" data-name="Tracé 34781" d="M1042.85-110.838S1105.183-38.02,1172.8-38.02s103.539-27.414,157.419-27.414,79.24,43.691,125.726,43.691V-183.767h-413.1Z" transform="translate(-1042.85 183.767)" fill="#c8dcc8" opacity="0.121"/>
        <path id="Tracé_34782" data-name="Tracé 34782" d="M1464.59-125.707s-63.639,89.8-132.671,89.8-105.7-33.808-160.714-33.808-80.9,53.882-128.355,53.882V-161.838h421.74Z" transform="translate(-1042.225 167.02)" fill="#c8dcc8" opacity="0.171"/>
        <path id="Tracé_34783" data-name="Tracé 34783" d="M1042.85-156.148s62.333,70.3,129.95,70.3,103.539-26.465,157.419-26.465,79.24,42.178,125.726,42.178V-184.431h-413.1Z" transform="translate(-1042.85 210.733)" fill="#78938a"/>
      </g>
      <g id="Groupe_8579" data-name="Groupe 8579" transform="translate(1.06 -3.497)" opacity="0.083">
        <path id="Tracé_29258" data-name="Tracé 29258" d="M1753.727,198.927h-50.132a13.08,13.08,0,0,1-2.216-1.109,4.654,4.654,0,0,1-1.734-3.991q.021-24.963.009-49.926c0-.21,0-.42.013-.629a4.6,4.6,0,0,1,3.381-4.291,8.977,8.977,0,0,1,2.052-.22c1.083-.034,2.167-.009,3.308-.009,0-.56-.023-1.039,0-1.516a2.912,2.912,0,0,1,3.23-2.788,2.85,2.85,0,0,1,2.936,2.882c.011.455,0,.91,0,1.368h28.115a13.463,13.463,0,0,1,.155-2.111,2.975,2.975,0,0,1,3.524-2.123,2.9,2.9,0,0,1,2.542,2.835c.02.472,0,.945,0,1.454,1.316,0,2.534-.05,3.746.018a6.293,6.293,0,0,1,2.2.431,4.683,4.683,0,0,1,2.818,4.7q-.022,24.931-.008,49.863c0,.231,0,.462-.015.692a4.666,4.666,0,0,1-3.288,4.246C1754.15,198.77,1753.94,198.851,1753.727,198.927Zm-52.154-44.779c-.013.259-.029.444-.029.629q0,17.725,0,35.45a2.818,2.818,0,0,0,3.027,3.03q18.17,0,36.338,0a2.17,2.17,0,0,0,2.365-2.4c0-1.91,0-3.82,0-5.73a4.051,4.051,0,0,1,4.354-4.367c1.868-.008,3.736,0,5.6,0a2.216,2.216,0,0,0,2.543-2.542q0-11.681,0-23.361c0-.22-.022-.441-.037-.709h-.877q-19.335,0-38.669,0a5.41,5.41,0,0,1-.817-.034.919.919,0,0,1-.039-1.808,4.524,4.524,0,0,1,.815-.044q19.366,0,38.731,0h.894v-.665c0-2.6,0-5.205,0-7.808a2.867,2.867,0,0,0-3.178-3.145q-3.653-.006-7.306,0h-.664c0,.836,0,1.588,0,2.34,0,1.082.082,1.179,1.132,1.448a.936.936,0,0,1-.208,1.857,2.53,2.53,0,0,1-.622-.073,2.814,2.814,0,0,1-2.184-2.732c-.021-.934,0-1.869,0-2.8h-32.454c0,.791,0,1.542,0,2.293,0,1.038.131,1.2,1.145,1.45a.926.926,0,0,1,.765,1.06.881.881,0,0,1-.962.8,2.588,2.588,0,0,1-.621-.073,2.871,2.871,0,0,1-2.213-2.853c-.017-.892,0-1.785,0-2.72-1.3,0-2.49,0-3.683,0a2.869,2.869,0,0,0-3.176,3.146q-.009,3.9,0,7.808c0,.2.021.405.035.664h.8q4.44,0,8.88,0a3.149,3.149,0,0,1,.749.057.92.92,0,0,1-.023,1.781,3.559,3.559,0,0,1-.751.048q-4.44,0-8.88,0Zm-.04,40.057a6.7,6.7,0,0,0,.12.784,2.85,2.85,0,0,0,2.966,2.048q24.026,0,48.051,0a2.832,2.832,0,0,0,3.108-3.075c.009-3.106,0-6.213,0-9.319,0-.155-.028-.31-.051-.556-.234.221-.4.37-.56.528-2.939,2.938-5.893,5.861-8.808,8.824a5.5,5.5,0,0,1-4.16,1.721q-18.357-.033-36.714,0A6.186,6.186,0,0,1,1701.533,194.2Zm43.639-2.5,9.052-9.053h-2.273c-1.552,0-3.105-.016-4.657.012a2.056,2.056,0,0,0-2.11,1.994C1745.143,187.038,1745.172,189.421,1745.172,191.7Zm-32.527-52.984c.148-1.494.07-2.071-.474-2.227a1.966,1.966,0,0,0-1.42.062c-.806.511-.345,1.4-.476,2.165Zm34.283.012c.278-1.044.152-1.933-.364-2.221a1.321,1.321,0,0,0-1.542.049c-.72.6-.276,1.425-.4,2.172Z" transform="translate(-1699.644 -134.429)" fill="#fff"/>
        <path id="Tracé_29259" data-name="Tracé 29259" d="M1737.378,351.615c-.713,0-1.427.008-2.141,0a1.782,1.782,0,0,1-1.883-1.846q-.041-2.235,0-4.47a1.779,1.779,0,0,1,1.823-1.852c1.49-.041,2.982-.039,4.471,0a1.821,1.821,0,0,1,1.871,1.889q.048,2.2,0,4.407a1.818,1.818,0,0,1-1.936,1.874C1738.848,351.622,1738.113,351.615,1737.378,351.615Zm-2.1-6.261v4.339h4.317v-4.339Z" transform="translate(-1727.666 -308.26)" fill="#fff"/>
        <path id="Tracé_29260" data-name="Tracé 29260" d="M1889.959,351.615c-.713,0-1.427.007-2.141,0a1.783,1.783,0,0,1-1.928-1.8c-.049-1.509-.046-3.022,0-4.532a1.779,1.779,0,0,1,1.848-1.834q2.234-.056,4.47,0a1.8,1.8,0,0,1,1.84,1.907q.036,2.172,0,4.344a1.812,1.812,0,0,1-1.948,1.917C1891.387,351.621,1890.673,351.615,1889.959,351.615Zm2.167-6.261H1887.8v4.325h4.324Z" transform="translate(-1854.53 -308.259)" fill="#fff"/>
        <path id="Tracé_29261" data-name="Tracé 29261" d="M1813.685,351.618c-.735,0-1.47.014-2.2,0a1.73,1.73,0,0,1-1.784-1.674q-.074-2.39,0-4.783a1.721,1.721,0,0,1,1.764-1.7c1.531-.046,3.065-.048,4.6,0a1.772,1.772,0,0,1,1.782,1.835q.054,2.234,0,4.47a1.805,1.805,0,0,1-1.948,1.857C1815.154,351.624,1814.42,351.618,1813.685,351.618Zm2.229-6.259H1811.6V349.7h4.315Z" transform="translate(-1791.154 -308.263)" fill="#fff"/>
        <path id="Tracé_29262" data-name="Tracé 29262" d="M1737.417,282.224c-.713,0-1.428.016-2.141,0a1.812,1.812,0,0,1-1.925-1.943q-.031-2.14,0-4.281a1.8,1.8,0,0,1,1.921-1.947q2.172-.047,4.344,0a1.825,1.825,0,0,1,1.911,1.971q.031,2.109,0,4.218a1.847,1.847,0,0,1-1.969,1.98C1738.845,282.24,1738.13,282.224,1737.417,282.224Zm-2.147-6.253v4.308h4.32v-4.308Z" transform="translate(-1727.668 -250.544)" fill="#fff"/>
        <path id="Tracé_29263" data-name="Tracé 29263" d="M1813.71,282.22c-.735,0-1.47.021-2.2,0a1.788,1.788,0,0,1-1.874-1.862c-.034-1.468-.032-2.938,0-4.406a1.773,1.773,0,0,1,1.843-1.893q2.233-.061,4.469,0a1.786,1.786,0,0,1,1.854,1.889c.03,1.468.033,2.938,0,4.406a1.8,1.8,0,0,1-1.88,1.866C1815.18,282.241,1814.445,282.22,1813.71,282.22Zm-2.163-1.943h4.319v-4.306h-4.319Z" transform="translate(-1791.109 -250.541)" fill="#fff"/>
        <path id="Tracé_29264" data-name="Tracé 29264" d="M1970.355,278.151c0,.714.012,1.427,0,2.141a1.8,1.8,0,0,1-1.865,1.937q-2.234.047-4.469,0a1.73,1.73,0,0,1-1.815-1.72c-.06-1.571-.059-3.148,0-4.719a1.7,1.7,0,0,1,1.756-1.708q2.3-.069,4.6,0a1.765,1.765,0,0,1,1.8,1.871C1970.37,276.681,1970.354,277.416,1970.355,278.151Zm-6.3-2.172c0,1.374-.008,2.672.013,3.97,0,.133.175.376.272.377,1.353.025,2.708.017,4.087.017v-4.364Z" transform="translate(-1918 -250.558)" fill="#fff"/>
        <path id="Tracé_29265" data-name="Tracé 29265" d="M1970.328,349.293c0,.713.013,1.427,0,2.14a1.789,1.789,0,0,1-1.834,1.9c-1.49.035-2.981.032-4.47,0a1.77,1.77,0,0,1-1.859-1.816q-.072-2.264,0-4.532a1.77,1.77,0,0,1,1.865-1.811q2.2-.055,4.408,0a1.808,1.808,0,0,1,1.891,1.976C1970.338,347.865,1970.328,348.579,1970.328,349.293Zm-1.926,2.129V347.1h-4.326v4.319Z" transform="translate(-1917.972 -309.702)" fill="#fff"/>
        <path id="Tracé_29266" data-name="Tracé 29266" d="M1894.049,278.14c0,.734.019,1.47-.006,2.2a1.792,1.792,0,0,1-1.868,1.87q-2.2.046-4.407,0a1.786,1.786,0,0,1-1.887-1.854q-.063-2.233,0-4.469a1.764,1.764,0,0,1,1.836-1.836q2.234-.061,4.47,0a1.8,1.8,0,0,1,1.859,1.945C1894.064,276.712,1894.05,277.426,1894.049,278.14ZM1892.1,280.3v-4.317H1887.8V280.3Z" transform="translate(-1854.527 -250.542)" fill="#fff"/>
        <path id="Tracé_29267" data-name="Tracé 29267" d="M1737.38,421.178c-.712,0-1.425.011-2.137,0a1.8,1.8,0,0,1-1.887-1.845q-.043-2.262,0-4.524a1.775,1.775,0,0,1,1.855-1.807q2.2-.031,4.4,0a1.817,1.817,0,0,1,1.9,1.842c.039,1.486.037,2.975,0,4.461a1.839,1.839,0,0,1-1.939,1.875C1738.848,421.186,1738.114,421.178,1737.38,421.178Zm2.229-6.26h-4.328v4.335h4.328Z" transform="translate(-1727.668 -366.126)" fill="#fff"/>
        <path id="Tracé_29268" data-name="Tracé 29268" d="M1813.719,421.169c-.733,0-1.467.013-2.2,0a1.774,1.774,0,0,1-1.844-1.753q-.064-2.354,0-4.711a1.73,1.73,0,0,1,1.753-1.706c1.529-.031,3.059-.029,4.588,0a1.74,1.74,0,0,1,1.782,1.683c.058,1.59.058,3.184,0,4.773a1.781,1.781,0,0,1-1.887,1.716C1815.186,421.179,1814.453,421.169,1813.719,421.169Zm2.177-1.908v-4.35h-4.306v4.35Z" transform="translate(-1791.14 -366.118)" fill="#fff"/>
        <path id="Tracé_29269" data-name="Tracé 29269" d="M1887.731,414.843c0,.406.019.8,0,1.192a.9.9,0,0,1-.947.952.915.915,0,0,1-.92-.923c-.011-.1,0-.21-.01-.314-.132-1.99.479-2.968,2.766-2.839,1.13.064,2.267,0,3.4.013a1.844,1.844,0,0,1,2.017,1.986q.025,2.109,0,4.219a1.847,1.847,0,0,1-2.026,1.978c-1.428.006-2.855.014-4.282,0a1.822,1.822,0,0,1-1.842-1.637.909.909,0,0,1,.635-1.089.921.921,0,0,1,1.153.517c.076.134.241.307.367.31,1.339.022,2.68.014,4.065.014v-4.375Z" transform="translate(-1854.511 -366.056)" fill="#fff"/>
      </g>
    </g>
  </g>
</svg>
