<svg xmlns="http://www.w3.org/2000/svg" width="456" height="174.783" viewBox="0 0 456 174.783">
  <g id="Groupe_8637" data-name="Groupe 8637" transform="translate(21 46.298)">
    <g id="Groupe_8566" data-name="Groupe 8566" transform="translate(-1063.85 204.063)">
      <path id="Tracé_34781" data-name="Tracé 34781" d="M1042.85-105.095s67.3,78.552,140.3,78.552,111.786-29.573,169.959-29.573,85.551,47.132,135.74,47.132V-183.767h-446Z" transform="translate(0 -66.593)" fill="#c8dcc8" opacity="0.121"/>
      <path id="Tracé_34782" data-name="Tracé 34782" d="M1498.85-122.862S1430.041-25.986,1355.4-25.986s-114.291-36.471-173.769-36.471S1094.165-4.331,1042.85-4.331V-161.838h456Z" transform="translate(0 -82.933)" fill="#c8dcc8" opacity="0.171"/>
      <path id="Tracé_34783" data-name="Tracé 34783" d="M1042.85-153.921s67.3,75.834,140.3,75.834,111.786-28.549,169.959-28.549,85.551,45.5,135.74,45.5V-184.431h-446Z" transform="translate(0 -37.557)" fill="#78938a"/>
    </g>
    <g id="Groupe_8642" data-name="Groupe 8642" transform="translate(-1084.278 -325.425)" opacity="0.055">
      <path id="Tracé_33001" data-name="Tracé 33001" d="M1116.119,379.437q-15.581,0-31.161-.006a13.18,13.18,0,0,1-9.9-4.094,13.378,13.378,0,0,1-3.479-12.682q3.17-15.21,6.305-30.428a13.371,13.371,0,0,1,13.4-10.972q24.865-.035,49.731,0c6.953.012,12.086,4.49,13.531,11.608q3.083,15.182,6.234,30.35a13.435,13.435,0,0,1-11.871,16.1c-.84.074-1.686.116-2.529.117Q1131.246,379.444,1116.119,379.437Zm-35.438-32.03h1.107q9.557,0,19.114,0a3.024,3.024,0,0,1,3.417,2.761,12.04,12.04,0,0,0,23.621.021c.442-2.009,1.407-2.782,3.491-2.782q9.556,0,19.112,0h.992c-.045-.349-.06-.591-.109-.826-.876-4.253-1.875-8.485-2.6-12.763a8.122,8.122,0,0,0-8.365-6.81c-16.214.1-32.428.039-48.642.039-.363,0-.725,0-1.088.014a7.56,7.56,0,0,0-7.042,5.772c-.382,1.582-.684,3.184-1.012,4.779C1082.018,340.83,1081.365,344.05,1080.681,347.407Zm-1.1,5.8a5.677,5.677,0,0,0-.213.635c-.68,3.328-1.274,6.676-2.048,9.982-1.322,5.645,3.018,9.8,8.1,9.764,20.621-.152,41.244-.105,61.866-.03a7.638,7.638,0,0,0,7.807-8.479c-.276-2.051-.762-4.075-1.169-6.108-.383-1.91-.789-3.816-1.18-5.7a2.658,2.658,0,0,0-.346-.056c-6.219,0-12.439,0-18.659-.02-.577,0-.681.31-.837.725a17.834,17.834,0,0,1-33.539,0,.914.914,0,0,0-1.026-.722c-4.62.024-9.239.013-13.859.013Z" transform="translate(0)" fill="#fff"/>
    </g>
  </g>
</svg>
