<svg xmlns="http://www.w3.org/2000/svg" xmlns:xlink="http://www.w3.org/1999/xlink" width="412" height="137" viewBox="0 0 412 137">
  <defs>
    <clipPath id="clip-path">
      <rect id="Rectangle_567" data-name="Rectangle 567" width="412" height="137" transform="translate(-1)" fill="#fff"/>
    </clipPath>
  </defs>
  <g id="Groupe_de_masques_3" data-name="Groupe de masques 3" transform="translate(1)" clip-path="url(#clip-path)">
    <g id="Groupe_8636" data-name="Groupe 8636" transform="translate(20 20)">
      <g id="Groupe_8566" data-name="Groupe 8566" transform="translate(-20.625 -46.298)">
        <path id="Tracé_34781" data-name="Tracé 34781" d="M1042.85-110.838S1105.183-38.02,1172.8-38.02s103.539-27.414,157.419-27.414,79.24,43.691,125.726,43.691V-183.767h-413.1Z" transform="translate(-1042.85 183.767)" fill="#c8dcc8" opacity="0.121"/>
        <path id="Tracé_34782" data-name="Tracé 34782" d="M1464.59-125.707s-63.639,89.8-132.671,89.8-105.7-33.808-160.714-33.808-80.9,53.882-128.355,53.882V-161.838h421.74Z" transform="translate(-1042.225 167.02)" fill="#c8dcc8" opacity="0.171"/>
        <path id="Tracé_34783" data-name="Tracé 34783" d="M1042.85-156.148s62.333,70.3,129.95,70.3,103.539-26.465,157.419-26.465,79.24,42.178,125.726,42.178V-184.431h-413.1Z" transform="translate(-1042.85 210.733)" fill="#78938a"/>
      </g>
    </g>
    <g id="Groupe_8618" data-name="Groupe 8618" transform="translate(5.126 1.041)" opacity="0.095">
      <path id="Tracé_29254" data-name="Tracé 29254" d="M2753.8,120.153c.017.019.029.053.048.056,2.948.56,4.9,2.961,4.829,6.578-.114,6.012-.029,12.028-.034,18.042a3.382,3.382,0,0,1-.08.9,1.119,1.119,0,0,1-2.186-.208,7.587,7.587,0,0,1-.016-.76q0-9.174,0-18.347c0-2.67-1.3-3.967-3.972-3.967h-37.531a4.181,4.181,0,0,1-.457,0c-.646-.071-.877.169-.868.855.037,3.019.018,6.039.016,9.059,0,2.945-1.568,4.514-4.5,4.515h-8.908c-1,0-1,0-1,.985q0,8.717,0,17.433,0,18.309,0,36.618c0,2.616,1.3,3.91,3.939,3.91q7.917,0,15.835,0c.3,0,.7-.055.88.107a1.7,1.7,0,0,1,.65,1.062c-.014.352-.407.752-.731,1.006-.2.156-.583.1-.884.1q-7.841.007-15.684,0c-3.358,0-5.224-1.387-6.194-4.6-.013-.043-.063-.074-.1-.111V136.751a8.157,8.157,0,0,1,2.631-4.146q4.824-4.733,9.557-9.557a8.822,8.822,0,0,1,4.409-2.9Zm-42.534,4.356-10.083,10.082c2.574,0,5.336.005,8.1,0a1.728,1.728,0,0,0,1.98-1.95c.017-1.977,0-3.955,0-5.932Z" transform="translate(-2696.848 -120.153)" fill="#fff"/>
      <path id="Tracé_29255" data-name="Tracé 29255" d="M2827.805,271.924c0-1.221-.038-2.334.007-3.444a7.517,7.517,0,0,1,6.021-7.179,9.927,9.927,0,0,1,2.041-.181q5.94-.024,11.878-.007c4.881.008,8.1,3.238,8.109,8.11,0,.86,0,1.719,0,2.662.31.014.577.036.845.036,1.9,0,3.8-.013,5.709.005a6.163,6.163,0,0,1,6.389,6.459q.009,7.537,0,15.074c0,.127,0,.254,0,.381a1.126,1.126,0,0,1-1.105,1.2,1.11,1.11,0,0,1-1.169-1.21c-.019-1.573-.006-3.147-.006-4.72v-1.036a10.673,10.673,0,0,1-7.565,3.762c0,.593.014,1.147,0,1.7a4.16,4.16,0,1,1-8.319-.016c-.015-.528,0-1.057,0-1.64h-17.613c0,.556.008,1.106,0,1.656a4.175,4.175,0,0,1-8.351.065c-.02-.556,0-1.113,0-1.547a29.4,29.4,0,0,1-4.066-1.324,27.491,27.491,0,0,1-3.43-2.328c-.008.106-.037.341-.037.575q0,7.423,0,14.846c0,2.725,1.574,4.277,4.317,4.277q20.366,0,40.731,0c2.766,0,4.338-1.576,4.342-4.34,0-1.421-.007-2.842,0-4.264.007-.839.426-1.347,1.1-1.37.708-.025,1.184.5,1.174,1.374a48.329,48.329,0,0,1-.145,5.772,5.968,5.968,0,0,1-5.782,5.1c-.2.01-.4.011-.608.011q-20.44,0-40.884,0a6.18,6.18,0,0,1-6.391-4.877,8.139,8.139,0,0,1-.139-1.739q-.015-12.6,0-25.2c0-4.1,2.554-6.64,6.653-6.645C2823.551,271.921,2825.6,271.924,2827.805,271.924Zm22.741,17.588c.6-2.741,1.858-4.124,4.014-4.167a5.233,5.233,0,0,1,2.444.643,4.056,4.056,0,0,1,2,3.5,7.785,7.785,0,0,0,6.624-4.293c1.323-2.659,1.081-5.5.654-8.273-.269-1.746-1.971-2.712-4-2.712q-20.474,0-40.948,0c-.178,0-.355,0-.532.014a3.82,3.82,0,0,0-3.663,3.837c-.033,1.293-.058,2.591.021,3.88a7.7,7.7,0,0,0,5.128,7.077,15.7,15.7,0,0,0,2.313.576c.445-2.748,1.985-4.268,4.205-4.294,2.241-.026,3.763,1.459,4.29,4.213Zm-18.116-17.628c0-.966,0-1.9,0-2.827a3,3,0,0,1,3.258-3.273q6.123-.007,12.247,0a2.967,2.967,0,0,1,3.251,3.261c.006.932,0,1.863,0,2.828h2.389c0-.932,0-1.815,0-2.7,0-3.53-2.212-5.768-5.728-5.777q-6.009-.015-12.02,0a9.488,9.488,0,0,0-1.137.073,5.016,5.016,0,0,0-4.372,3.79,34.431,34.431,0,0,0-.337,4.622Zm2.293-.01h14.18c0-.98-.019-1.912.006-2.843.02-.729-.318-.984-1.019-.973-1.57.025-3.143.008-4.714.008-2.484,0-4.968.005-7.452,0-.509,0-.965.1-.989.684C2834.692,269.775,2834.723,270.808,2834.723,271.874Zm-3.989,19.687c0-.684.02-1.369,0-2.053a1.884,1.884,0,1,0-3.769-.042q-.063,2.051,0,4.105a1.884,1.884,0,1,0,3.769-.034C2830.753,292.88,2830.733,292.22,2830.734,291.561Zm22.194-.042c0,.709-.031,1.42.007,2.126a1.862,1.862,0,0,0,1.876,1.808,1.834,1.834,0,0,0,1.834-1.766c.048-1.441.048-2.887,0-4.328a1.835,1.835,0,0,0-1.83-1.77,1.86,1.86,0,0,0-1.879,1.8C2852.9,290.1,2852.928,290.81,2852.928,291.519Z" transform="translate(-2790.838 -232.433)" fill="#fff"/>
      <path id="Tracé_29256" data-name="Tracé 29256" d="M2833.223,191.027q5.594,0,11.186,0a4.838,4.838,0,0,1,.834.031,1.025,1.025,0,0,1,.9.98,1.009,1.009,0,0,1-.679,1.146,2.935,2.935,0,0,1-.968.121q-11.338.009-22.675,0a2.92,2.92,0,0,1-.9-.1.918.918,0,0,1-.694-1.177,2.383,2.383,0,0,1,.905-.959c.17-.123.493-.041.745-.041Q2827.557,191.026,2833.223,191.027Z" transform="translate(-2795.093 -176.588)" fill="#fff"/>
      <path id="Tracé_29257" data-name="Tracé 29257" d="M2833.28,158.246h11.261a4.493,4.493,0,0,1,.684.016,1.123,1.123,0,0,1,.21,2.176,2.71,2.71,0,0,1-.823.088q-11.376.007-22.751,0a4.111,4.111,0,0,1-.607-.019,1.106,1.106,0,0,1-1.007-1.211,1.045,1.045,0,0,1,1.088-1.044c.582-.029,1.166-.01,1.75-.01Z" transform="translate(-2795.139 -150.492)" fill="#fff"/>
    </g>
  </g>
</svg>
