<svg xmlns="http://www.w3.org/2000/svg" xmlns:xlink="http://www.w3.org/1999/xlink" width="412" height="137" viewBox="0 0 412 137">
  <defs>
    <clipPath id="clip-path">
      <rect id="Rectangle_567" data-name="Rectangle 567" width="412" height="137" transform="translate(-1)" fill="#fff"/>
    </clipPath>
  </defs>
  <g id="Groupe_de_masques_3" data-name="Groupe de masques 3" transform="translate(1)" clip-path="url(#clip-path)">
    <g id="Groupe_8636" data-name="Groupe 8636" transform="translate(20 20)">
      <g id="Groupe_8566" data-name="Groupe 8566" transform="translate(-20.625 -46.298)">
        <path id="Tracé_34781" data-name="Tracé 34781" d="M1042.85-110.838S1105.183-38.02,1172.8-38.02s103.539-27.414,157.419-27.414,79.24,43.691,125.726,43.691V-183.767h-413.1Z" transform="translate(-1042.85 183.767)" fill="#c8dcc8" opacity="0.121"/>
        <path id="Tracé_34782" data-name="Tracé 34782" d="M1464.59-125.707s-63.639,89.8-132.671,89.8-105.7-33.808-160.714-33.808-80.9,53.882-128.355,53.882V-161.838h421.74Z" transform="translate(-1042.225 167.02)" fill="#c8dcc8" opacity="0.171"/>
        <path id="Tracé_34783" data-name="Tracé 34783" d="M1042.85-156.148s62.333,70.3,129.95,70.3,103.539-26.465,157.419-26.465,79.24,42.178,125.726,42.178V-184.431h-413.1Z" transform="translate(-1042.85 210.733)" fill="#78938a"/>
      </g>
      <g id="Groupe_8578" data-name="Groupe 8578" transform="translate(-20.278 -18.5)" opacity="0.04">
        <path id="Tracé_29238" data-name="Tracé 29238" d="M1527.072,303.954c-.124.146-.255.287-.371.439a1.684,1.684,0,0,1-2.2.649,2.864,2.864,0,0,1-1.244-1.8,24.353,24.353,0,0,1-.064-3.807q0-14.192,0-28.384v-1.59c-1.73,0-3.343,0-4.958,0-2.328-.007-2.86-.547-2.86-2.9q0-17.352.007-34.7a9.72,9.72,0,0,1,8.014-9.724c1.4-.261,2.787-.371,3.678,1.106Zm-3.964-38.456V226.4c-2.369.676-3.851,2.874-3.853,5.719q-.016,16.173,0,32.347c0,.338.052.677.081,1.035Z" transform="translate(-1404.83 -221.983)" fill="#fff"/>
        <path id="Tracé_29239" data-name="Tracé 29239" d="M1342.172,263.605a41.6,41.6,0,1,1-41.641-41.546A41.605,41.605,0,0,1,1342.172,263.605Zm-3.9-.01a37.71,37.71,0,1,0-37.673,37.773A37.743,37.743,0,0,0,1338.271,263.6Z" transform="translate(-1237.5 -222.032)" fill="#fff"/>
        <path id="Tracé_29240" data-name="Tracé 29240" d="M1201.034,240.192h3.94v-1.331c0-4.814-.031-9.63.037-14.443a2.78,2.78,0,0,1,.823-1.94,2.056,2.056,0,0,1,1.937-.116,2.728,2.728,0,0,1,1.036,1.928c.085,4.853.047,9.708.047,14.562v1.335h3.886v-1.338q0-6.983.007-13.966c0-.512-.079-1.158.187-1.5a3.533,3.533,0,0,1,1.676-1.251,1.6,1.6,0,0,1,1.873,1.125,2.094,2.094,0,0,1,.182.808c0,8,.163,16-.1,23.989-.152,4.694-3.082,7.577-7.716,8.979v1.3q0,22.023,0,44.046a5.741,5.741,0,0,1-.049,1.308,1.808,1.808,0,0,1-1.96,1.553,1.769,1.769,0,0,1-1.833-1.682,9.693,9.693,0,0,1-.034-1.311q0-22.023.021-44.046a1.352,1.352,0,0,0-1.131-1.568,9.575,9.575,0,0,1-6.7-9.183c-.032-7.679-.014-15.359-.007-23.038,0-1.508.712-2.331,1.95-2.328s1.92.811,1.923,2.345q.016,7.222,0,14.443Zm11.59,4.015h-11.643a41.2,41.2,0,0,0,.229,4.33,5.806,5.806,0,0,0,11.374.108A28.777,28.777,0,0,0,1212.624,244.207Z" transform="translate(-1197.145 -222.041)" fill="#fff"/>
        <path id="Tracé_29241" data-name="Tracé 29241" d="M1288.875,283.42a31.293,31.293,0,0,1,27.422-31.266,30.386,30.386,0,0,1,22.09,5.7c1.44,1.034,1.771,2.142.984,3.18-.757,1-1.846.995-3.249-.008a27.3,27.3,0,1,0,11.2,20.409,26.936,26.936,0,0,0-5.1-14.286,6.721,6.721,0,0,1-.6-.89,1.913,1.913,0,0,1,.689-2.511,1.947,1.947,0,0,1,2.642.55,30.634,30.634,0,0,1,4.575,8.458,31.219,31.219,0,1,1-60.475,13.8C1288.929,285.409,1288.922,284.251,1288.875,283.42Z" transform="translate(-1257.012 -241.509)" fill="#fff"/>
      </g>
    </g>
  </g>
</svg>
